<svg xmlns="http://www.w3.org/2000/svg" viewBox="0 0 469.9 58.19"><defs><style>.cls-1{fill:#303030;}</style></defs><title>darkDown</title><g id="Capa_2" data-name="Capa 2"><g id="Capa_1-2" data-name="Capa 1"><path class="cls-1" d="M0,0H469.9V22.68c-.65,0-1.31,0-2,0-3,0-5.91.11-8.86.16-2.2,0-4.4.15-6.6.27s-4.39.24-6.58.43c-2.84.24-5.68.47-8.52.77s-5.95.65-8.92,1.05q-5.35.72-10.68,1.62t-10.9,2q-6,1.21-11.87,2.61-5.61,1.32-11.19,2.75c-5.26,1.37-10.5,2.78-15.75,4.16l-16.23,4.28C347.6,43.93,343.35,45,339.09,46q-7.79,1.84-15.63,3.46-8.13,1.66-16.29,3c-3.67.61-7.35,1.15-11,1.65q-4.12.55-8.28,1c-2.46.28-4.92.52-7.39.76s-4.89.48-7.33.68c-2.13.17-4.25.3-6.37.45-1.73.12-3.45.26-5.18.36-1.54.09-3.09.11-4.63.21s-2.86.07-4.28.21a17.22,17.22,0,0,1-1.9.05c-1.1,0-2.2.1-3.3.11-1.31,0-2.63,0-3.94,0-5.91.22-11.83.13-17.74.12-1.43,0-2.87,0-4.3,0-2-.09-4-.08-6-.15l-4-.13c-2.18-.09-4.35-.18-6.53-.29-1.64-.07-3.27-.15-4.9-.28-2.24-.18-4.48-.3-6.72-.48-2.05-.17-4.1-.32-6.15-.5-3-.27-6-.58-9-.91q-4.78-.52-9.54-1.15c-3.39-.46-6.76-1-10.13-1.5S151.67,51.6,148.24,51s-7-1.35-10.47-2.09q-5.79-1.23-11.56-2.63t-11.66-2.9c-6.09-1.58-12.16-3.25-18.24-4.92C90.06,36.7,83.81,35,77.53,33.35c-5.3-1.38-10.62-2.68-16-3.86s-11-2.27-16.47-3.18q-6.24-1-12.51-1.78c-2.57-.31-5.16-.57-7.74-.78s-5.22-.42-7.84-.57q-3-.16-6-.28c-1.71-.07-3.42-.06-5.13-.15-2-.1-3.94,0-5.91-.07Z"/></g></g></svg>