<svg xmlns="http://www.w3.org/2000/svg" viewBox="0 0 382.4 89.21"><defs><style>.cls-1{fill:#24627b;}.cls-2{fill:#41b3b8;}.cls-3{fill:#fefefe;}</style></defs><title>Recurso 2</title><g id="Capa_2" data-name="Capa 2"><g id="Capa_1-2" data-name="Capa 1"><path class="cls-1" d="M44.87,89.16c-13.59,0-27.18-.07-40.76,0-3,0-4.15-.79-4.11-4,.17-12.57.15-25.14,0-37.7,0-3,1-3.94,3.89-3.85,5.23.16,10.47-.1,15.7,0,2.33.07,3-.7,2.92-3-.15-5.72,0-11.45-.09-17.17-.06-2.55.78-3.87,3.41-3.49,6.14.88,9.69-.48,11.55-7.6C39.72,3.61,49.4-.95,59.28.17a20.31,20.31,0,0,1,17.3,16.71c.39,2.61,1.38,3.17,3.8,3.17,9.57,0,9.57.09,9.57,9.72q0,27.25,0,54.5c0,4.88,0,4.89-5,4.89ZM86.23,54.71c0-8.59,0-17.18,0-25.76,0-5.73.89-4.93-5.13-5.25-3.3-.18-4.58.78-4.11,4.11a22.39,22.39,0,0,1,0,4.84c-.27,3.32-2.55,5.6-5.4,5.54s-5-2.37-5.24-5.73a61.12,61.12,0,0,1,0-6.35c.08-1.77-.58-2.41-2.36-2.37-3.86.1-7.73,0-11.6,0-6.11,0-6.11,0-6.16,6.11q-.08,8.23-5.29,8.32c-3.63.06-5.49-2.81-5.51-8.51,0-6.13,0-6-6.27-6-2.27,0-3,.68-3,3,.15,4.73.18,9.46,0,14.18-.1,2.45.87,2.93,3,2.85,3.61-.14,7.23,0,10.85,0,2,0,3,.69,3,2.83-.07,3.73,0,7.47,0,11.2,0,1.21-.22,2.36-1.7,2.41-1.67.06-2-1.14-2-2.52,0-2.49-.12-5,0-7.46.11-2-.41-2.86-2.65-2.83-10.1.11-20.2.09-30.3,0-1.95,0-2.59.6-2.58,2.54q.12,16.62,0,33.23c0,1.75.52,2.38,2.34,2.37q15.53-.1,31,0c1.67,0,2.17-.61,2.12-2.18-.08-2.74,0-5.48,0-8.21,0-1.33.37-2.62,2-2.52,1.44.08,1.66,1.25,1.66,2.46,0,2.49.14,5,0,7.47-.15,2.23.5,3,2.88,3q18.71-.17,37.41,0c2.54,0,3.1-.83,3.07-3.19C86.15,73.12,86.22,63.91,86.23,54.71Zm-47.14-30v6.94c0,1.28,0,2.74,1.78,2.67,1.48-.06,1.46-1.44,1.48-2.57.08-4.1-.05-8.23.28-12.31A13.42,13.42,0,0,1,56.73,6.88a13.7,13.7,0,0,1,13.2,13.56c.09,3.74,0,7.47.08,11.2,0,1.26,0,2.77,1.78,2.67,1.39-.08,1.56-1.41,1.55-2.58,0-4.23.24-8.48-.12-12.68a17,17,0,0,0-16-15.45C48.94,3,41.72,8.39,39.56,16.72,38.83,19.55,39.24,22.41,39.09,24.67Zm17.14-4.61c2.62,0,5.24-.06,7.85,0,1.66.05,2.24-.47,1.84-2.18a10.1,10.1,0,0,0-19.19-.79c-.62,1.92-.49,3.11,2,3S53.74,20.06,56.23,20.06Z"/><path class="cls-2" d="M101.25,52.59c-.1-14.17,11.19-25.31,25.78-25.43S153.23,37.83,153.51,52c.27,13.93-11.11,25-26,25.3S101.35,67,101.25,52.59Zm42.39-.33c0-9.71-6.89-17-16-17.17-9.49-.13-17.07,7.79-16.93,17.68.13,9.26,7.63,16.93,16.55,16.95C136.55,69.73,143.69,62.15,143.64,52.26Z"/><path class="cls-2" d="M292,77.3c-15-.08-25.91-10.71-25.84-25.12.07-14.11,11.64-25.15,26.2-25,14.73.13,26.13,11.19,26,25.26S306.71,77.38,292,77.3ZM308.7,52.52c.05-9.9-7.05-17.39-16.51-17.44s-16.56,7.48-16.53,17.42c0,9.54,7.06,17,16.21,17.22S308.65,62.25,308.7,52.52Z"/><path class="cls-2" d="M373.16,56.36c0-7.7.1-15.6-.05-23.49-.06-3.22.42-5,4.36-5s4.87,1.51,4.81,5.18c-.19,12.86,0,25.72-.11,38.57,0,1.62,1,3.9-1,4.75-2.25,1-3.4-1.39-4.72-2.67-7.28-7.06-14.47-14.21-21.76-21.26-1.32-1.28-2.25-3.18-5.21-3.56,0,7.66-.15,15.16.06,22.65.1,3.56-.59,5.22-4.73,5.25-4.52,0-4.44-2.35-4.42-5.54.08-12.85,0-25.71.07-38.57,0-1.6-.94-3.88,1.3-4.59,1.9-.6,3.18,1.2,4.37,2.43,8,8.24,16,16.54,24,24.79C370.72,55.93,371.27,56.9,373.16,56.36Z"/><path class="cls-2" d="M214,76c-7.21,2.11-11.45-.24-14.74-5.88-2.31-4-4.47-8.74-11-7.61-2.9.5-4.25,1.12-4,4.15.16,1.73-.11,3.51.06,5.24.32,3.35-.66,4.93-4.46,4.87-3.49-.06-4.77-1-4.72-4.66.18-13.21.14-26.43,0-39.64,0-3.14.74-4.71,4.21-4.48,6,.38,12.06-.49,18.05.77,6.5,1.38,10.86,5.13,12.71,11.47,2,6.7.77,13-4.68,17.51-3,2.5-2.55,4-.52,6.49C208.05,67.92,210.87,71.83,214,76ZM184.36,44.71c0,10,0,10,5.36,9.95,7.86,0,11.34-2.81,11.41-9.11s-3.7-9.23-11.71-9.61C180.84,35.53,185.84,42,184.36,44.71Z"/><path class="cls-2" d="M243.85,52.83c0,6.42-.17,12.86.07,19.28.15,3.67-1.26,4.61-4.75,4.62s-4.71-1.29-4.67-4.79c.14-13.24.17-26.49,0-39.73-.06-4,2-4.19,5.13-4.29,3.43-.12,4.37,1.25,4.29,4.46C243.73,39.19,243.85,46,243.85,52.83Z"/><path class="cls-3" d="M86.22,54.71c0,9.2-.07,18.41,0,27.62,0,2.36-.53,3.22-3.07,3.19q-18.7-.19-37.41,0c-2.38,0-3-.77-2.88-3,.17-2.48,0-5,0-7.47,0-1.21-.22-2.38-1.66-2.46-1.67-.1-2,1.19-2,2.52-.05,2.73-.09,5.47,0,8.21.05,1.57-.45,2.19-2.12,2.18q-15.52-.09-31,0c-1.82,0-2.35-.62-2.34-2.37q.09-16.61,0-33.23c0-1.94.63-2.56,2.58-2.54,10.1.08,20.2.1,30.3,0,2.24,0,2.76.82,2.65,2.83-.13,2.48,0,5,0,7.46,0,1.38.34,2.58,2,2.52,1.48,0,1.7-1.2,1.7-2.41,0-3.73-.05-7.47,0-11.2,0-2.14-1-2.84-3-2.83-3.62,0-7.24-.13-10.85,0-2.17.08-3.14-.4-3-2.85.19-4.72.16-9.45,0-14.18-.08-2.29.7-3,3-3,6.25-.06,6.25-.16,6.27,6,0,5.7,1.88,8.57,5.51,8.51q5.22-.09,5.29-8.32c0-6.11,0-6.11,6.16-6.11,3.87,0,7.74.07,11.6,0,1.78,0,2.44.6,2.36,2.37a61.12,61.12,0,0,0,0,6.35c.2,3.36,2.37,5.67,5.24,5.73s5.13-2.22,5.4-5.54a22.39,22.39,0,0,0,0-4.84c-.47-3.33.81-4.29,4.11-4.11,6,.32,5.1-.48,5.13,5.25C86.26,37.53,86.23,46.12,86.22,54.71ZM33.86,56.77c0-.51,0-1.5,0-2.5,0-1.34-.22-2.65-1.88-2.63S30.14,53,30.14,54.33c0,1.49,0,3,0,4.47-.21,5.23-3.74,8.79-8.67,8.79s-8.26-3.41-8.56-8.49c-.11-1.85,0-3.72-.1-5.58a1.76,1.76,0,0,0-1.5-1.86,1.68,1.68,0,0,0-2,1.22c-2,4.9.69,13.28,5.4,16.32A11.51,11.51,0,0,0,27,69.89C32.11,67.21,34.08,62.81,33.86,56.77Zm9,9.89a1.71,1.71,0,0,0-1.76-1.92,1.63,1.63,0,0,0-1.73,1.55,1.76,1.76,0,0,0,3.49.37Z"/><path class="cls-3" d="M39.09,24.67c.15-2.26-.26-5.12.47-8C41.72,8.39,48.94,3,57.19,3.6a17,17,0,0,1,16,15.45c.36,4.2.11,8.45.12,12.68,0,1.17-.16,2.5-1.55,2.58C70,34.41,70,32.9,70,31.64c-.05-3.73,0-7.46-.08-11.2A13.7,13.7,0,0,0,56.73,6.88,13.42,13.42,0,0,0,42.63,19.4c-.33,4.08-.2,8.21-.28,12.31,0,1.13,0,2.51-1.48,2.57-1.73.07-1.77-1.39-1.78-2.67Z"/><path class="cls-3" d="M56.23,20.06c-2.49,0-5-.11-7.47,0s-2.65-1.06-2-3a10.1,10.1,0,0,1,19.19.79c.4,1.71-.18,2.23-1.84,2.18C61.47,20,58.85,20.06,56.23,20.06Z"/><path class="cls-1" d="M33.86,56.77c.22,6-1.75,10.44-6.82,13.12a11.51,11.51,0,0,1-12.36-.69c-4.71-3-7.43-11.42-5.4-16.32a1.68,1.68,0,0,1,2-1.22,1.76,1.76,0,0,1,1.5,1.86c.07,1.86,0,3.73.1,5.58.3,5.08,3.78,8.49,8.56,8.49S29.89,64,30.1,58.8c0-1.49,0-3,0-4.47,0-1.33.19-2.67,1.84-2.69s1.9,1.29,1.88,2.63C33.85,55.27,33.86,56.26,33.86,56.77Z"/><path class="cls-1" d="M42.87,66.66a1.76,1.76,0,0,1-3.49-.37,1.63,1.63,0,0,1,1.73-1.55A1.71,1.71,0,0,1,42.87,66.66Z"/></g></g></svg>