<svg xmlns="http://www.w3.org/2000/svg" viewBox="0 0 179.73 134.3"><defs><style>.cls-1{fill:#24627b;}.cls-2{fill:#41b3b8;}.cls-3{fill:#fefefe;}</style></defs><title>Recurso 5</title><g id="Capa_2" data-name="Capa 2"><g id="Capa_1-2" data-name="Capa 1"><path class="cls-1" d="M89.63,89.16c-13.59,0-27.18-.07-40.77,0-3,0-4.15-.79-4.1-4,.16-12.57.14-25.14,0-37.7,0-3,1-3.94,3.88-3.85,5.23.16,10.47-.1,15.7,0,2.34.07,3-.7,2.92-3-.14-5.72,0-11.45-.09-17.17-.06-2.55.79-3.87,3.41-3.49,6.14.88,9.7-.48,11.56-7.6C84.47,3.61,94.15-.95,104,.17a20.31,20.31,0,0,1,17.3,16.71c.4,2.61,1.39,3.17,3.8,3.17,9.57,0,9.57.09,9.57,9.72v54.5c0,4.88,0,4.89-5,4.89ZM131,54.71c0-8.59,0-17.18,0-25.76,0-5.73.89-4.93-5.14-5.25-3.29-.18-4.58.78-4.11,4.11a21.77,21.77,0,0,1,0,4.84c-.26,3.32-2.54,5.6-5.4,5.54s-5-2.37-5.23-5.73a61.12,61.12,0,0,1,0-6.35c.08-1.77-.58-2.41-2.37-2.37-3.86.1-7.73,0-11.59,0-6.11,0-6.11,0-6.17,6.11,0,5.49-1.8,8.26-5.29,8.32s-5.48-2.81-5.5-8.51c0-6.13,0-6-6.27-6-2.27,0-3,.68-3,3,.15,4.73.18,9.46,0,14.18-.1,2.45.88,2.93,3,2.85,3.61-.14,7.23,0,10.85,0,2,0,3,.69,3,2.83-.07,3.73,0,7.47,0,11.2,0,1.21-.21,2.36-1.7,2.41-1.67.06-2-1.14-2-2.52,0-2.49-.12-5,0-7.46.11-2-.4-2.86-2.65-2.83-10.1.11-20.2.09-30.3,0-1.95,0-2.58.6-2.57,2.54q.1,16.62,0,33.23c0,1.75.52,2.38,2.33,2.37q15.52-.1,31.05,0c1.66,0,2.16-.61,2.12-2.18-.08-2.74,0-5.48,0-8.21,0-1.33.37-2.62,2-2.52,1.44.08,1.66,1.25,1.65,2.46,0,2.49.14,5,0,7.47-.15,2.23.49,3,2.88,3q18.69-.17,37.4,0c2.54,0,3.11-.83,3.08-3.19C130.91,73.12,131,63.91,131,54.71Zm-47.13-30c0,2.7,0,4.82,0,6.94,0,1.28.05,2.74,1.77,2.67,1.49-.06,1.46-1.44,1.48-2.57.08-4.1,0-8.23.28-12.31a13.43,13.43,0,0,1,14.1-12.52,13.69,13.69,0,0,1,13.2,13.56c.09,3.74,0,7.47.08,11.2,0,1.26,0,2.77,1.78,2.67,1.39-.08,1.56-1.41,1.56-2.58,0-4.23.24-8.48-.13-12.68a17,17,0,0,0-16-15.45C93.69,3,86.47,8.39,84.32,16.72,83.59,19.55,84,22.41,83.85,24.67ZM101,20.06c2.62,0,5.24-.06,7.85,0,1.67.05,2.24-.47,1.85-2.18a10.11,10.11,0,0,0-19.2-.79c-.62,1.92-.49,3.11,2,3S98.49,20.06,101,20.06Z"/><path class="cls-2" d="M0,118.5c-.06-9.06,7.15-16.17,16.48-16.25s16.75,6.82,16.93,15.88c.17,8.9-7.1,16-16.61,16.17S.07,127.68,0,118.5Zm27.1-.21c0-6.21-4.41-10.89-10.26-11a11.07,11.07,0,0,0-.24,22.13C22.57,129.46,27.13,124.61,27.1,118.29Z"/><path class="cls-2" d="M121.93,134.3c-9.58-.05-16.56-6.84-16.52-16.06,0-9,7.44-16.08,16.75-16s16.71,7.15,16.63,16.14S131.34,134.35,121.93,134.3Zm10.69-15.84c0-6.33-4.51-11.12-10.56-11.15s-10.58,4.78-10.56,11.14a10.57,10.57,0,1,0,21.12,0Z"/><path class="cls-2" d="M173.83,120.92c0-4.93.06-10,0-15,0-2.06.27-3.19,2.78-3.2s3.11,1,3.08,3.31c-.12,8.21,0,16.44-.07,24.66,0,1,.61,2.49-.66,3-1.44.61-2.17-.89-3-1.71-4.65-4.51-9.25-9.08-13.91-13.59-.84-.81-1.44-2-3.33-2.28,0,4.9-.1,9.7,0,14.48.06,2.28-.38,3.34-3,3.36-2.9,0-2.85-1.5-2.83-3.54,0-8.22,0-16.44,0-24.66,0-1-.6-2.48.84-2.93,1.21-.38,2,.77,2.79,1.55,5.13,5.27,10.22,10.57,15.34,15.85A1.62,1.62,0,0,0,173.83,120.92Z"/><path class="cls-2" d="M72.09,133.45c-4.6,1.35-7.31-.15-9.42-3.76-1.48-2.53-2.86-5.59-7-4.87-1.84.33-2.71.72-2.53,2.66.1,1.11-.08,2.24,0,3.35.2,2.14-.42,3.15-2.85,3.11-2.23,0-3-.65-3-3,.12-8.45.1-16.9,0-25.35,0-2,.48-3,2.7-2.86,3.84.24,7.71-.32,11.54.49a10,10,0,0,1,8.12,7.33c1.25,4.29.49,8.31-3,11.2-1.93,1.6-1.63,2.56-.33,4.14C68.27,128.3,70.08,130.8,72.09,133.45Zm-19-20c0,6.37,0,6.37,3.43,6.36,5,0,7.25-1.8,7.29-5.83s-2.36-5.89-7.48-6.14C50.88,107.6,54.08,111.75,53.13,113.47Z"/><path class="cls-2" d="M91.17,118.65c0,4.11-.12,8.23,0,12.33.09,2.35-.81,3-3,3s-3-.83-3-3.06c.1-8.47.12-16.94,0-25.4,0-2.59,1.31-2.68,3.28-2.75,2.19-.07,2.79.8,2.74,2.85C91.09,109.94,91.16,114.3,91.17,118.65Z"/><path class="cls-3" d="M131,54.71c0,9.2-.07,18.41.05,27.62,0,2.36-.54,3.22-3.08,3.19q-18.7-.19-37.4,0c-2.39,0-3-.77-2.88-3,.16-2.48,0-5,0-7.47,0-1.21-.21-2.38-1.65-2.46-1.67-.1-2,1.19-2,2.52,0,2.73-.09,5.47,0,8.21,0,1.57-.46,2.19-2.12,2.18q-15.53-.09-31.05,0c-1.81,0-2.34-.62-2.33-2.37q.07-16.61,0-33.23c0-1.94.62-2.56,2.57-2.54,10.1.08,20.2.1,30.3,0,2.25,0,2.76.82,2.65,2.83-.13,2.48,0,5,0,7.46,0,1.38.34,2.58,2,2.52,1.49,0,1.7-1.2,1.7-2.41,0-3.73,0-7.47,0-11.2,0-2.14-1-2.84-3-2.83-3.62,0-7.24-.13-10.85,0-2.16.08-3.14-.4-3-2.85.19-4.72.16-9.45,0-14.18-.07-2.29.71-3,3-3,6.25-.06,6.25-.16,6.27,6,0,5.7,1.87,8.57,5.5,8.51s5.24-2.83,5.29-8.32c.06-6.11.06-6.11,6.17-6.11,3.86,0,7.73.07,11.59,0,1.79,0,2.45.6,2.37,2.37a61.12,61.12,0,0,0,0,6.35c.19,3.36,2.36,5.67,5.23,5.73s5.14-2.22,5.4-5.54a21.77,21.77,0,0,0,0-4.84c-.47-3.33.82-4.29,4.11-4.11,6,.32,5.1-.48,5.14,5.25C131,37.53,131,46.12,131,54.71ZM78.61,56.77c0-.51,0-1.5,0-2.5,0-1.34-.23-2.65-1.88-2.63S74.9,53,74.9,54.33c0,1.49,0,3-.05,4.47-.21,5.23-3.73,8.79-8.66,8.79s-8.26-3.41-8.57-8.49c-.11-1.85,0-3.72-.09-5.58A1.77,1.77,0,0,0,56,51.66a1.69,1.69,0,0,0-2,1.22c-2,4.9.7,13.28,5.4,16.32a11.51,11.51,0,0,0,12.36.69C76.87,67.21,78.84,62.81,78.61,56.77Zm9,9.89a1.7,1.7,0,0,0-1.75-1.92,1.62,1.62,0,0,0-1.73,1.55,1.75,1.75,0,0,0,3.48.37Z"/><path class="cls-3" d="M83.85,24.67c.14-2.26-.26-5.12.47-8C86.47,8.39,93.69,3,101.94,3.6a17,17,0,0,1,16,15.45c.37,4.2.11,8.45.13,12.68,0,1.17-.17,2.5-1.56,2.58-1.75.1-1.76-1.41-1.78-2.67,0-3.73,0-7.46-.08-11.2a13.69,13.69,0,0,0-13.2-13.56A13.43,13.43,0,0,0,87.38,19.4c-.33,4.08-.2,8.21-.28,12.31,0,1.13,0,2.51-1.48,2.57-1.72.07-1.77-1.39-1.77-2.67C83.84,29.49,83.85,27.37,83.85,24.67Z"/><path class="cls-3" d="M101,20.06c-2.49,0-5-.11-7.47,0s-2.65-1.06-2-3a10.11,10.11,0,0,1,19.2.79c.39,1.71-.18,2.23-1.85,2.18C106.22,20,103.6,20.06,101,20.06Z"/><path class="cls-1" d="M78.61,56.77c.23,6-1.74,10.44-6.82,13.12a11.51,11.51,0,0,1-12.36-.69c-4.7-3-7.43-11.42-5.4-16.32a1.69,1.69,0,0,1,2-1.22,1.77,1.77,0,0,1,1.5,1.86c.07,1.86,0,3.73.09,5.58.31,5.08,3.78,8.49,8.57,8.49S74.64,64,74.85,58.8c.06-1.49,0-3,.05-4.47,0-1.33.18-2.67,1.84-2.69s1.89,1.29,1.88,2.63C78.6,55.27,78.61,56.26,78.61,56.77Z"/><path class="cls-1" d="M87.62,66.66a1.75,1.75,0,0,1-3.48-.37,1.62,1.62,0,0,1,1.73-1.55A1.7,1.7,0,0,1,87.62,66.66Z"/></g></g></svg>